<svg xmlns="http://www.w3.org/2000/svg" width="33" height="33" fill="none" viewBox="0 0 33 33"><path fill="#0F1D66" d="M14.431.82L.822 14.39a2.79 2.79 0 000 3.952l13.61 13.571a2.805 2.805 0 003.963 0L32.007 18.34a2.791 2.791 0 000-3.953L18.395.82a2.81 2.81 0 00-3.964 0zM24.99 16.365c0 2.19-.838 4.379-2.512 6.05-3.35 3.341-8.78 3.339-12.13 0a8.523 8.523 0 01-2.515-6.047c0-2.19.839-4.379 2.512-6.05a8.566 8.566 0 016.068-2.505c2.193 0 4.388.835 6.065 2.507a8.525 8.525 0 012.512 6.045z"></path></svg>